<svg viewBox="0 0 144 40" xmlns="http://www.w3.org/2000/svg">
<path d="M20.42 33.118c0.449-0.233 0.981 0.1 0.981 0.615v0 5.576c0 0.515-0.532 0.848-0.981 0.615v0l-4.124-2.141-4.124 2.141c-0.449 0.233-0.981-0.1-0.981-0.615v0-5.576c0-0.515 0.532-0.848 0.981-0.615v0l4.124 2.141zM16.296 0c1.44 0 2.607 1.169 2.607 2.61 0 1.053-0.623 1.96-1.521 2.373v0 3.7h5.236c5.497 0 9.97 4.478 9.97 9.983v0 2.655c0 5.504-4.473 9.983-9.97 9.983v0h-12.644c-5.497 0-9.97-4.478-9.97-9.983v0-2.655c0-5.504 4.473-9.983 9.97-9.983v0h5.236v-3.7c-0.897-0.412-1.521-1.319-1.521-2.373 0-1.441 1.167-2.61 2.607-2.61zM100.59 10.735c1.317-0.021 2.565 0.206 3.746 0.68s2.191 1.126 3.034 1.954c0.843 0.828 1.504 1.82 1.983 2.975s0.709 2.376 0.688 3.663c0.021 1.287-0.208 2.508-0.688 3.663s-1.141 2.144-1.983 2.967c-0.843 0.823-1.855 1.472-3.034 1.946s-2.429 0.702-3.746 0.68c-1.317 0.021-2.566-0.206-3.746-0.68s-2.191-1.124-3.034-1.946c-0.843-0.823-1.504-1.812-1.983-2.967s-0.709-2.376-0.688-3.663c-0.021-1.287 0.208-2.508 0.688-3.663s1.14-2.147 1.983-2.975c0.843-0.828 1.854-1.479 3.034-1.954s2.428-0.701 3.746-0.68zM49.836 10.735c1.085 0 2.078 0.227 2.979 0.68s1.646 1.103 2.236 1.946v0-2.168h5.437v17.628h-5.437v-2.184c-0.59 0.844-1.336 1.493-2.236 1.946s-1.894 0.68-2.979 0.68c-1.623 0-3.087-0.406-4.394-1.218s-2.323-1.925-3.050-3.339c-0.727-1.414-1.090-2.98-1.090-4.7s0.364-3.286 1.090-4.7c0.727-1.414 1.744-2.529 3.050-3.347s2.771-1.226 4.394-1.226zM68.138 11.194l3.066 10.982 3.082-10.792h4.978l3.082 10.792 3.066-10.982h5.768l-5.958 17.628h-5.468l-3.050-9.7-3.034 9.7h-5.468l-5.958-17.628h5.895zM122.14 10.862c0.822 0 1.522 0.111 2.102 0.332v0 4.985c-0.653-0.2-1.391-0.301-2.213-0.301-1.328 0-2.397 0.382-3.208 1.147s-1.217 1.791-1.217 3.078v0 8.719h-5.437v-17.628h5.437v2.579c0.4-0.897 1.009-1.606 1.825-2.128s1.72-0.783 2.71-0.783zM131.995 4.342v14.226l5.895-7.374h6.211l-7.128 8.782 7.475 8.846h-6.274l-6.179-7.453v7.453h-5.437v-24.48h5.437zM22.618 14.12h-12.644c-2.507 0-4.539 2.035-4.539 4.545v0 2.655c0 2.51 2.032 4.545 4.539 4.545v0h12.644c2.507 0 4.539-2.035 4.539-4.545v0-2.655c0-2.51-2.032-4.545-4.539-4.545v0zM50.753 15.435c-1.264 0-2.292 0.43-3.082 1.29s-1.185 1.954-1.185 3.284 0.395 2.421 1.185 3.276c0.79 0.854 1.817 1.282 3.082 1.282s2.292-0.427 3.082-1.282c0.79-0.854 1.185-1.946 1.185-3.276s-0.395-2.424-1.185-3.284c-0.79-0.86-1.817-1.29-3.082-1.29zM100.59 15.498c-1.275 0-2.305 0.422-3.090 1.266s-1.177 1.925-1.177 3.244c0 1.319 0.392 2.397 1.177 3.236s1.815 1.258 3.090 1.258c1.275 0 2.305-0.419 3.090-1.258s1.177-1.917 1.177-3.236c0-1.319-0.393-2.4-1.177-3.244s-1.815-1.266-3.090-1.266zM11.3 17.377c1.44 0 2.607 1.169 2.607 2.61s-1.167 2.61-2.607 2.61c-1.44 0-2.607-1.169-2.607-2.61s1.167-2.61 2.607-2.61zM21.293 17.377c1.44 0 2.607 1.169 2.607 2.61s-1.167 2.61-2.607 2.61c-1.44 0-2.607-1.169-2.607-2.61s1.167-2.61 2.607-2.61z"></path>
</svg>
